<svg xmlns="http://www.w3.org/2000/svg" width="16" height="16" viewBox="0 0 16 16" fill="none">
  <path d="M1.8 5.45c0-.88.72-1.6 1.6-1.6h2.35c.35 0 .68.12.94.34l.71.6c.24.2.54.31.85.31h4.24c.93 0 1.65.82 1.55 1.73l-.44 4.05c-.09.81-.77 1.42-1.58 1.42H3.27c-.92 0-1.64-.79-1.56-1.7l.12-1.18.37-3.97Z" fill="#44474F"/>
  <path d="M1.8 5.45c0-.88.72-1.6 1.6-1.6h2.35c.35 0 .68.12.94.34l.71.6c.24.2.54.31.85.31h4.24c.93 0 1.65.82 1.55 1.73l-.44 4.05c-.09.81-.77 1.42-1.58 1.42H3.27c-.92 0-1.64-.79-1.56-1.7l.12-1.18.37-3.97Z" stroke="#D8DBE1" stroke-width="1.15" stroke-linejoin="round"/>
</svg>
