<svg xmlns="http://www.w3.org/2000/svg" width="16" height="16" viewBox="0 0 16 16" fill="none">
  <path d="M1.7 5.05c0-.97.78-1.75 1.75-1.75h2.58c.34 0 .67.13.91.36l.84.8c.14.13.33.21.52.21h3.24c.97 0 1.76.79 1.76 1.76v4.96c0 .97-.79 1.76-1.76 1.76H3.45c-.97 0-1.75-.79-1.75-1.76V5.05Z" fill="#44474F"/>
  <path d="M1.7 5.05c0-.97.78-1.75 1.75-1.75h2.58c.34 0 .67.13.91.36l.84.8c.14.13.33.21.52.21h3.24c.97 0 1.76.79 1.76 1.76v4.96c0 .97-.79 1.76-1.76 1.76H3.45c-.97 0-1.75-.79-1.75-1.76V5.05Z" stroke="#D8DBE1" stroke-width="1.15" stroke-linejoin="round"/>
</svg>
